<svg width="192" height="192" xmlns="http://www.w3.org/2000/svg" xmlns:xlink="http://www.w3.org/1999/xlink" xml:space="preserve" overflow="hidden"><defs><clipPath id="clip0"><rect x="75" y="442" width="192" height="192"/></clipPath></defs><g clip-path="url(#clip0)" transform="translate(-75 -442)"><path d="M184.8 588.74C177.538 590.767 169.924 591.196 162.48 590" stroke="#000000" stroke-width="8" stroke-miterlimit="10" fill="none"/><path d="M208.47 501.5C190.865 483.431 162.896 480.44 141.87 494.38" stroke="#000000" stroke-width="8" stroke-miterlimit="10" fill="none"/><path d="M118.44 540.18C118.44 539.5 118.38 538.82 118.38 538.13 118.371 520.529 127.194 504.097 141.87 494.38" stroke="#000000" stroke-width="8" stroke-miterlimit="10" fill="none"/><path d="M162.48 590C137.848 585.978 119.452 565.17 118.48 540.23" stroke="#000000" stroke-width="8" stroke-miterlimit="10" fill="none"/><path d="M221.09 522.8C229.544 550.547 213.903 579.893 186.157 588.347 185.706 588.484 185.254 588.615 184.8 588.74" stroke="#000000" stroke-width="8" stroke-miterlimit="10" fill="none"/><path d="M208.47 501.5C214.314 507.493 218.641 514.796 221.09 522.8" stroke="#000000" stroke-width="8" stroke-miterlimit="10" fill="none"/><path d="M221.09 522.8C211.954 517.107 201.741 513.362 191.09 511.8" stroke="#000000" stroke-width="8" stroke-miterlimit="10" fill="none"/><path d="M118.44 540.18C124.145 533.136 131.018 527.125 138.76 522.41" stroke="#000000" stroke-width="8" stroke-miterlimit="10" fill="none"/><path d="M191.09 511.83C172.947 509.159 154.44 512.901 138.76 522.41" stroke="#000000" stroke-width="8" stroke-miterlimit="10" fill="none"/><path d="M147.5 492.51C145.296 499.855 144.178 507.482 144.18 515.15 144.18 516.96 144.26 518.75 144.38 520.53" stroke="#000000" stroke-width="8" stroke-miterlimit="10" fill="none"/><path d="M166.5 570.05C153.475 556.697 145.633 539.141 144.38 520.53" stroke="#000000" stroke-width="8" stroke-miterlimit="10" fill="none"/><path d="M166.5 570.05C173.359 577.099 181.475 582.804 190.43 586.87" stroke="#000000" stroke-width="8" stroke-miterlimit="10" fill="none"/><path d="M160.88 571.93C161.429 548.38 172.518 526.32 191.09 511.83" stroke="#000000" stroke-width="8" stroke-miterlimit="10" fill="none"/><path d="M208.47 501.5C202.256 504.18 196.414 507.652 191.09 511.83" stroke="#000000" stroke-width="8" stroke-miterlimit="10" fill="none"/><path d="M160.88 571.93C160.88 572.57 160.88 573.21 160.88 573.85 160.858 579.274 161.394 584.686 162.48 590" stroke="#000000" stroke-width="8" stroke-miterlimit="10" fill="none"/><path d="M201 511.92C201 517.095 196.805 521.29 191.63 521.29 186.455 521.29 182.26 517.095 182.26 511.92 182.26 506.745 186.455 502.55 191.63 502.55 196.805 502.55 201 506.745 201 511.92Z" fill="#000000"/><path d="M153.23 519.44C153.23 524.615 149.035 528.81 143.86 528.81 138.685 528.81 134.49 524.615 134.49 519.44 134.49 514.265 138.685 510.07 143.86 510.07 149.035 510.07 153.23 514.265 153.23 519.44Z" fill="#000000"/><path d="M170.06 566.24C170.06 571.415 165.865 575.61 160.69 575.61 155.515 575.61 151.32 571.415 151.32 566.24 151.32 561.065 155.515 556.87 160.69 556.87 165.865 556.87 170.06 561.065 170.06 566.24Z" fill="#000000"/><path d="M257.11 548.82 257.11 526.06C245.4 521.84 238.11 520.83 234.29 511.77 230.66 502.71 235.1 496.66 240.35 485.59L224.2 469.48C213.09 474.71 206.83 479.14 197.94 475.48 188.86 471.65 187.64 464.2 183.61 452.72L160.61 452.72C156.61 464.2 155.36 471.65 146.47 475.48 137.38 479.1 131.33 474.67 120.01 469.48L103.84 485.59C109.09 496.66 113.74 502.71 109.89 511.77 106.26 520.83 98.59 521.84 87.08 526.06L87.08 548.82C98.59 553.05 106.26 554.26 109.89 563.12 113.74 572.18 109.09 578.42 103.84 589.3L120 605.41C131.11 600.17 137.37 595.74 146.46 599.57 155.35 603.19 156.55 610.64 160.6 622.32L183.6 622.32C187.6 610.64 188.85 603.19 197.93 599.57 206.82 595.74 212.88 600.17 224.19 605.41L240.34 589.3C235.09 578.22 230.65 572.18 234.28 563.12 238.13 554.26 245.6 553.05 257.11 548.82Z" stroke="#000000" stroke-width="8" stroke-miterlimit="10" fill="none"/></g></svg>